<svg width="262" height="92" viewBox="0 0 262 92" fill="none" xmlns="http://www.w3.org/2000/svg">
<path d="M75.0832 40.6718L89.357 32.8025C90.4703 32.188 90.9663 30.8729 90.518 29.7033C83.8973 12.3557 66.7925 0 46.7294 0C44.909 0 43.1133 0.105942 41.3478 0.307938C40.0379 0.457669 39.0518 1.54534 39.0518 2.83359V22.1009C39.0518 23.0487 39.5911 23.9175 40.4528 24.3554L72.6021 40.7128C73.3829 41.1097 74.3169 41.0942 75.0832 40.6718Z" fill="black" style="fill:black;fill-opacity:1;"/>
<path d="M31.0976 2.62629C26.585 4.19 22.3934 6.41054 18.6399 9.1721C17.1174 10.2923 17.327 12.5877 19.0173 13.4479L30.7752 19.4301C32.5074 20.3115 34.5793 19.084 34.5793 17.1757V5.02058C34.5793 3.26053 32.7951 2.03867 31.0976 2.62629Z" fill="black" style="fill:black;fill-opacity:1;"/>
<path d="M33.1787 25.5791L14.0092 15.8268C12.9306 15.2773 11.5989 15.5273 10.8196 16.4399C4.06438 24.3558 0 34.539 0 45.6516C0 56.7642 3.79111 66.2241 10.127 74.0144C10.9251 74.9961 12.332 75.2687 13.4496 74.6528L33.2568 63.7323C34.0752 63.2817 34.5798 62.4356 34.5798 61.5175V27.8336C34.5798 26.8857 34.0405 26.017 33.1787 25.5791Z" fill="black" style="fill:black;fill-opacity:1;"/>
<path d="M17.6506 81.3769C21.6543 84.493 26.1929 86.9791 31.1104 88.6826C32.802 89.2688 34.579 88.0385 34.579 86.2841V72.3774C34.579 70.4309 32.4319 69.2062 30.6968 70.1625L17.9889 77.1688C16.3797 78.0559 16.2047 80.251 17.6506 81.3754V81.3769Z" fill="black" style="fill:black;fill-opacity:1;"/>
<path d="M39.0518 67.0398V88.4697C39.0518 89.758 40.0379 90.8471 41.3478 90.9954C43.1133 91.196 44.9076 91.3033 46.7294 91.3033C68.2746 91.3033 86.4031 77.0534 91.8063 57.6774C92.1288 56.5191 91.5895 55.2972 90.4993 54.7421L75.1946 46.9546C74.4138 46.5577 73.4797 46.5732 72.7134 46.9956L40.3762 64.8249C39.5578 65.2755 39.0532 66.1216 39.0532 67.0398H39.0518Z" fill="black" style="fill:black;fill-opacity:1;"/>
<path d="M89.6247 49.3713C91.3208 50.2344 93.3595 49.0746 93.4289 47.2087C93.4476 46.6917 93.4578 46.1718 93.4578 45.6506C93.4578 43.6645 93.3248 41.7082 93.0717 39.7885C92.8346 37.9988 90.819 37.0128 89.2098 37.8999L82.7669 41.4525C80.9682 42.4441 81.0116 44.9895 82.8435 45.9218L89.6247 49.3713Z" fill="black" style="fill:black;fill-opacity:1;"/>
<path d="M42.9345 58.3982L65.029 46.2163C66.8277 45.2247 66.7843 42.6792 64.9524 41.747L42.8578 30.5058C41.1257 29.6244 39.0537 30.8519 39.0537 32.7603V56.1833C39.0537 58.1298 41.2009 59.3545 42.9359 58.3982H42.9345Z" fill="black" style="fill:black;fill-opacity:1;"/>
<path d="M155.253 30.991C158.962 34.8798 160.818 39.7616 160.818 45.6336C160.818 51.5056 158.962 56.4143 155.253 60.3539C151.545 64.2963 146.899 66.2669 141.325 66.2669C136.288 66.2669 132.28 64.6791 129.302 61.5037V79.5972H118.335V26.0315H128.406V30.9529C131.169 27.0909 135.475 25.16 141.324 25.16C147.172 25.16 151.543 27.1051 155.252 30.9924L155.253 30.991ZM149.691 45.7113C149.691 42.485 148.715 39.8661 146.766 37.8546C144.817 35.8446 142.326 34.8402 139.292 34.8402C136.259 34.8402 133.944 35.7937 132.022 37.6978C130.099 39.602 129.138 42.2477 129.138 45.6336C129.138 49.0195 130.098 51.6794 132.022 53.6075C133.944 55.5413 136.367 56.5033 139.292 56.5033C142.217 56.5033 144.746 55.5003 146.725 53.4889C148.699 51.4788 149.689 48.8853 149.689 45.7113H149.691Z" fill="black" style="fill:black;fill-opacity:1;"/>
<path d="M193.872 26.0339V35.4768H190.947C187.587 35.4768 184.949 36.3512 183.028 38.0957C181.105 39.8431 180.143 42.3829 180.143 45.7137V65.3158H169.176V26.0339H179.247V30.7165C182.063 27.2798 185.748 25.5593 190.296 25.5593C191.65 25.5593 192.841 25.7161 193.869 26.0339H193.872Z" fill="black" style="fill:black;fill-opacity:1;"/>
<path d="M198.265 11.7485C198.265 9.84437 198.941 8.25806 200.295 6.98676C201.648 5.71687 203.299 5.08263 205.251 5.08263C207.203 5.08263 208.864 5.71687 210.245 6.98676C211.626 8.25665 212.317 9.84437 212.317 11.7485C212.317 13.6526 211.626 15.1612 210.245 16.4311C208.864 17.701 207.2 18.3353 205.251 18.3353C203.302 18.3353 201.648 17.701 200.295 16.4311C198.941 15.1612 198.265 13.6004 198.265 11.7485ZM199.806 65.3142V26.0323H210.773V65.3156H199.806V65.3142Z" fill="black" style="fill:black;fill-opacity:1;"/>
<path d="M218.865 45.6338C218.754 40.0273 220.839 35.1851 225.118 31.1126C229.395 27.0388 234.485 25.0542 240.39 25.1601C246.292 25.0542 251.396 27.0388 255.702 31.1126C260.006 35.1865 262.104 40.0287 261.996 45.6338C262.104 51.243 259.992 56.0966 255.658 60.1972C251.325 64.2979 246.208 66.2924 240.306 66.1865C234.404 66.2924 229.327 64.2979 225.076 60.1972C220.824 56.0966 218.752 51.243 218.862 45.6338H218.865ZM247.82 53.3308C249.797 51.3207 250.784 48.7838 250.784 45.7129C250.784 42.642 249.797 40.0796 247.82 38.0158C245.844 35.9521 243.367 34.9209 240.39 34.9209C237.413 34.9209 234.865 35.9408 232.916 37.9777C230.967 40.0146 229.991 42.5939 229.991 45.7143C229.991 48.8346 230.967 51.3235 232.916 53.3322C234.865 55.3437 237.355 56.3494 240.39 56.3494C243.425 56.3494 245.844 55.3451 247.82 53.3322V53.3308Z" fill="black" style="fill:black;fill-opacity:1;"/>
</svg>
