<svg width="124" height="44" viewBox="0 0 124 44" fill="none" xmlns="http://www.w3.org/2000/svg">
<path d="M35.1941 19.3456L41.8847 15.6858C42.4065 15.4001 42.639 14.7885 42.4289 14.2445C39.3256 6.17685 31.308 0.43074 21.9037 0.43074C21.0504 0.43074 20.2087 0.48001 19.3812 0.57395C18.7672 0.643584 18.3049 1.14942 18.3049 1.74853V10.709C18.3049 11.1498 18.5577 11.5538 18.9617 11.7574L34.0311 19.3646C34.3971 19.5492 34.8349 19.542 35.1941 19.3456Z" fill="white" style="fill:white;fill-opacity:1;"/>
<path d="M14.576 1.65197C12.4608 2.37918 10.4961 3.41187 8.73668 4.69615C8.02302 5.21709 8.1213 6.28459 8.91357 6.68466L14.4249 9.46673C15.2368 9.87665 16.208 9.30579 16.208 8.41828V2.76545C16.208 1.94693 15.3717 1.37869 14.576 1.65197Z" fill="white" style="fill:white;fill-opacity:1;"/>
<path d="M15.552 12.327L6.56657 7.79158C6.06098 7.53603 5.43679 7.65231 5.07149 8.07668C1.90511 11.7581 0 16.4938 0 21.6619C0 26.8299 1.77702 31.2293 4.74685 34.8522C5.12096 35.3088 5.7804 35.4356 6.30429 35.1492L15.5886 30.0705C15.9722 29.8609 16.2087 29.4674 16.2087 29.0404V13.3754C16.2087 12.9346 15.9559 12.5306 15.552 12.327Z" fill="white" style="fill:white;fill-opacity:1;"/>
<path d="M8.27311 38.2755C10.1498 39.7247 12.2772 40.8808 14.5821 41.6731C15.3751 41.9457 16.208 41.3735 16.208 40.5576V34.0902C16.208 33.185 15.2016 32.6154 14.3883 33.0602L8.4317 36.3185C7.67738 36.7311 7.59537 37.7519 8.27311 38.2748V38.2755Z" fill="white" style="fill:white;fill-opacity:1;"/>
<path d="M18.3049 31.6084V41.5745C18.3049 42.1737 18.7672 42.6802 19.3812 42.7491C20.2087 42.8424 21.0498 42.8923 21.9037 42.8923C32.0026 42.8923 40.5001 36.2653 43.0328 27.2543C43.1839 26.7156 42.9311 26.1473 42.4201 25.8892L35.2463 22.2676C34.8803 22.083 34.4425 22.0902 34.0833 22.2866L18.9257 30.5783C18.5421 30.7879 18.3056 31.1814 18.3056 31.6084H18.3049Z" fill="white" style="fill:white;fill-opacity:1;"/>
<path d="M42.0101 23.3922C42.8051 23.7936 43.7607 23.2542 43.7932 22.3865C43.802 22.146 43.8067 21.9043 43.8067 21.6619C43.8067 20.7382 43.7444 19.8284 43.6258 18.9356C43.5146 18.1033 42.5699 17.6448 41.8156 18.0573L38.7956 19.7095C37.9525 20.1706 37.9728 21.3544 38.8315 21.788L42.0101 23.3922Z" fill="white" style="fill:white;fill-opacity:1;"/>
<path d="M20.1247 27.5886L30.4811 21.9233C31.3242 21.4622 31.3039 20.2784 30.4452 19.8448L20.0887 14.617C19.2768 14.2071 18.3056 14.778 18.3056 15.6655V26.5586C18.3056 27.4638 19.3121 28.0334 20.1253 27.5886H20.1247Z" fill="white" style="fill:white;fill-opacity:1;"/>
<path d="M72.7731 14.843C74.5115 16.6515 75.3817 18.9218 75.3817 21.6527C75.3817 24.3835 74.5115 26.6663 72.7731 28.4985C71.0347 30.3319 68.8572 31.2484 66.2445 31.2484C63.8833 31.2484 62.0046 30.51 60.6091 29.0332V37.4477H55.4685V12.5365H60.189V14.8253C61.4841 13.0292 63.5024 12.1312 66.2438 12.1312C68.9853 12.1312 71.0341 13.0358 72.7725 14.8436L72.7731 14.843ZM70.1659 21.6888C70.1659 20.1884 69.7084 18.9704 68.7948 18.035C67.8812 17.1002 66.7135 16.6331 65.2916 16.6331C63.8697 16.6331 62.7847 17.0765 61.884 17.9621C60.9826 18.8476 60.5319 20.078 60.5319 21.6527C60.5319 23.2273 60.9819 24.4643 61.884 25.361C62.7847 26.2603 63.9206 26.7077 65.2916 26.7077C66.6627 26.7077 67.848 26.2413 68.7758 25.3058C69.701 24.371 70.1652 23.1649 70.1652 21.6888H70.1659Z" fill="white" style="fill:white;fill-opacity:1;"/>
<path d="M90.8747 12.5365V16.9281H89.5037C87.9286 16.9281 86.6924 17.3347 85.7917 18.146C84.8903 18.9586 84.4397 20.1398 84.4397 21.6888V30.8049H79.299V12.5365H84.0195V14.7142C85.3397 13.1159 87.0666 12.3158 89.1987 12.3158C89.8331 12.3158 90.3915 12.3887 90.8734 12.5365H90.8747Z" fill="white" style="fill:white;fill-opacity:1;"/>
<path d="M92.9337 5.89372C92.9337 5.00818 93.2509 4.27046 93.8853 3.67923C94.5196 3.08865 95.2936 2.79369 96.2085 2.79369C97.1235 2.79369 97.9022 3.08865 98.5494 3.67923C99.1967 4.2698 99.5206 5.00818 99.5206 5.89372C99.5206 6.77925 99.1967 7.48085 98.5494 8.07142C97.9022 8.662 97.1221 8.95695 96.2085 8.95695C95.2949 8.95695 94.5196 8.662 93.8853 8.07142C93.2509 7.48085 92.9337 6.75495 92.9337 5.89372ZM93.6562 30.8049V12.5365H98.7968V30.8056H93.6562V30.8049Z" fill="white" style="fill:white;fill-opacity:1;"/>
<path d="M102.59 21.6527C102.538 19.0453 103.515 16.7934 105.521 14.8995C107.526 13.0049 109.912 12.0819 112.68 12.1312C115.446 12.0819 117.838 13.0049 119.857 14.8995C121.874 16.7941 122.858 19.046 122.807 21.6527C122.858 24.2613 121.868 26.5185 119.836 28.4255C117.805 30.3326 115.407 31.2602 112.64 31.2109C109.874 31.2602 107.494 30.3326 105.502 28.4255C103.508 26.5185 102.537 24.2613 102.589 21.6527H102.59ZM116.162 25.2322C117.089 24.2974 117.552 23.1176 117.552 21.6894C117.552 20.2613 117.089 19.0696 116.162 18.1099C115.236 17.1501 114.075 16.6706 112.68 16.6706C111.284 16.6706 110.09 17.1448 109.176 18.0921C108.263 19.0394 107.805 20.239 107.805 21.6901C107.805 23.1413 108.263 24.2988 109.176 25.2329C110.09 26.1684 111.257 26.6361 112.68 26.6361C114.102 26.6361 115.236 26.169 116.162 25.2329V25.2322Z" fill="white" style="fill:white;fill-opacity:1;"/>
</svg>
